<svg width="17" height="12" viewBox="0 0 17 12" fill="none" xmlns="http://www.w3.org/2000/svg">
<path d="M11.0588 0.987634L10.3576 1.68887C10.1877 1.8587 10.1905 2.13493 10.3638 2.30129L13.2478 5.07102H0.928762C0.691978 5.07102 0.5 5.263 0.5 5.49979V6.50023C0.5 6.73702 0.691978 6.92899 0.928762 6.92899H13.2478L10.3638 9.69873C10.1905 9.86509 10.1877 10.1413 10.3576 10.3111L11.0588 11.0124C11.2263 11.1798 11.4978 11.1798 11.6652 11.0124L16.3744 6.30318C16.5419 6.13575 16.5419 5.86427 16.3744 5.6968L11.6652 0.987634C11.4977 0.820203 11.2262 0.820203 11.0588 0.987634Z" fill="white"/>
</svg>
