<svg width="16" height="12" viewBox="0 0 16 12" fill="none" xmlns="http://www.w3.org/2000/svg">
<path d="M5.44114 11.0124L6.14239 10.3112C6.31221 10.1414 6.30943 9.86513 6.13621 9.69877L3.25212 6.92902H15.5712C15.808 6.92902 16 6.73704 16 6.50026V5.49981C16 5.26302 15.808 5.07104 15.5712 5.07104H3.25212L6.13617 2.3013C6.30943 2.13494 6.31221 1.8587 6.14235 1.68888L5.44111 0.987635C5.27368 0.820202 5.0022 0.820202 4.83473 0.987635L0.125574 5.69686C-0.0418581 5.86429 -0.0418581 6.13577 0.125574 6.30324L4.8348 11.0125C5.00223 11.1799 5.27371 11.1799 5.44114 11.0124Z" fill="#231F20"/>
</svg>
