<svg width="22" height="24" viewBox="0 0 22 24" fill="none" xmlns="http://www.w3.org/2000/svg">
<path d="M21.5 18V0.75C21.5 0.3375 21.1625 0 20.75 0H4.25C2.17812 0 0.5 1.67812 0.5 3.75V20.25C0.5 22.3219 2.17812 24 4.25 24H20.75C21.1625 24 21.5 23.6625 21.5 23.25V22.5C21.5 22.1344 21.2375 21.8297 20.8953 21.7641C20.6984 21.1547 20.6984 19.3453 20.8953 18.7359C21.2422 18.6656 21.5 18.3656 21.5 18ZM18.9688 21.75H4.25C3.42031 21.75 2.75 21.0797 2.75 20.25C2.75 19.425 3.425 18.75 4.25 18.75H18.9688C18.8422 19.5609 18.8422 20.9391 18.9688 21.75ZM19.25 16.5H4.25C3.71563 16.5 3.20937 16.6125 2.75 16.8141V3.75C2.75 2.92031 3.42031 2.25 4.25 2.25H19.25V16.5ZM10.6016 13.3359C10.8219 13.5516 11.1781 13.5516 11.3984 13.3359L14.8016 9.99375C15.7906 9.02344 15.7297 7.41094 14.6281 6.51562C13.5266 5.62031 12.0828 6.01875 11.3469 6.74063L11 7.08281L10.6531 6.74063C9.93594 6.03281 8.4875 5.61094 7.37188 6.51562C6.26563 7.41094 6.20937 9.02344 7.19844 9.99375L10.6016 13.3359Z" fill="#231F20"/>
</svg>
