<svg width="16" height="16" viewBox="0 0 16 16" fill="none" xmlns="http://www.w3.org/2000/svg">
<path d="M15.4143 1.75816L14.2422 0.585981C13.8515 0.195357 13.3397 4.57764e-05 12.8278 4.57764e-05C12.3159 4.57764e-05 11.804 0.195357 11.4137 0.585668L9.08593 2.91347L8 3.9994L0.401592 11.5975L0.00471867 15.1669C-0.0452811 15.6162 0.30878 16 0.748465 16C0.776278 16 0.804403 15.9984 0.832527 15.9953L4.39939 15.6012L12.0006 8.00001L13.0862 6.91439L15.414 4.58659C16.1953 3.80534 16.1953 2.5391 15.4143 1.75816ZM3.71095 14.1684L1.59909 14.4015L1.8344 12.2862L9.06062 5.06002L10.03 4.09065L11.9094 5.97002L10.94 6.93939L3.71095 14.1684ZM14.3534 3.52566L12.9697 4.9094L11.0906 3.03003L12.4744 1.64629C12.6019 1.51879 12.7506 1.49973 12.8278 1.49973C12.905 1.49973 13.054 1.51879 13.1812 1.64629L14.3534 2.81847C14.5484 3.01378 14.5484 3.33097 14.3534 3.52566Z" fill="#231F20"/>
</svg>
