<svg width="20" height="20" viewBox="0 0 20 20" fill="none" xmlns="http://www.w3.org/2000/svg">
<path d="M13.1257 0.700378V3.20013C13.1257 3.54385 12.8444 3.82507 12.5007 3.82507C12.157 3.82507 11.8758 3.54385 11.8758 3.20013V0.700378C11.8758 0.356662 12.157 0.0754395 12.5007 0.0754395C12.8444 0.0754395 13.1257 0.356662 13.1257 0.700378ZM9.27058 0.977695L10.5205 2.85251C10.7118 3.14155 10.6337 3.52823 10.3486 3.71962C10.0635 3.911 9.67288 3.83289 9.4815 3.54776L8.23162 1.67294C8.04023 1.38391 8.11835 0.997225 8.40348 0.805837C8.68861 0.614449 9.07919 0.692567 9.27058 0.977695ZM5.27488 4.72342C5.64203 4.35627 6.23572 4.35627 6.59896 4.72342L11.4344 9.55498C11.8289 9.94948 12.5007 9.66825 12.5007 9.11362V7.57471C12.5007 6.88337 13.0593 6.32483 13.7506 6.32483C14.4419 6.32483 15.0005 6.88337 15.0005 7.57471V13.5741C15.0005 15.8044 13.8287 17.8706 11.9188 19.0189C9.419 20.5188 6.224 20.1243 4.16561 18.0659L0.275364 14.1756C-0.0917879 13.8085 -0.0917879 13.2148 0.275364 12.8515C0.642515 12.4883 1.23621 12.4844 1.59945 12.8515L3.66956 14.9216C3.90782 15.1599 4.2945 15.1599 4.53276 14.9216C4.77102 14.6834 4.77102 14.2967 4.53276 14.0584L0.900303 10.426C0.533151 10.0588 0.533151 9.46515 0.900303 9.1019C1.26745 8.73866 1.86115 8.73475 2.22439 9.1019L5.85685 12.7344C6.09511 12.9726 6.48179 12.9726 6.72005 12.7344C6.9583 12.4961 6.9583 12.1094 6.72005 11.8712L2.15018 7.3013C1.78303 6.93415 1.78303 6.34045 2.15018 5.97721C2.51733 5.61396 3.11102 5.61006 3.47427 5.97721L8.04414 10.5471C8.28239 10.7853 8.66908 10.7853 8.90733 10.5471C9.14559 10.3088 9.14559 9.92214 8.90733 9.68388L5.27488 6.05142C4.90772 5.68427 4.90772 5.09058 5.27488 4.72733V4.72342ZM16.9183 19.015C15.973 19.5813 14.9302 19.8782 13.8834 19.9173C15.7621 18.3705 16.8753 16.0504 16.8753 13.5741V9.74247C17.1956 9.73856 17.5002 9.49249 17.5002 9.11753V7.57471C17.5002 6.88337 18.0588 6.32483 18.7501 6.32483C19.4415 6.32483 20 6.88337 20 7.57471V13.5741C20 15.8044 18.8282 17.8706 16.9183 19.0189V19.015ZM16.598 0.805837C16.887 0.997225 16.9612 1.38391 16.7698 1.67294L15.52 3.54776C15.3286 3.83679 14.9419 3.911 14.6529 3.71962C14.3638 3.52823 14.2896 3.14155 14.481 2.85251L15.7309 0.977695C15.9223 0.688661 16.309 0.614449 16.598 0.805837Z" fill="#2D5BD0"/>
</svg>
