<svg width="24" height="20" viewBox="0 0 24 20" fill="none" xmlns="http://www.w3.org/2000/svg">
<path d="M23.7589 9.64161L13.4935 1.2078C13.0738 0.858386 12.545 0.667053 11.9989 0.667053C11.4528 0.667053 10.924 0.858386 10.5043 1.2078L0.238799 9.64161C0.171656 9.6978 0.11624 9.76667 0.0757144 9.84428C0.0351887 9.92189 0.0103474 10.0067 0.00260907 10.0939C-0.0051293 10.1811 0.00438679 10.269 0.030614 10.3526C0.0568411 10.4361 0.0992657 10.5136 0.155465 10.5808L0.582134 11.0933C0.69561 11.2288 0.858233 11.3136 1.03426 11.3293C1.21029 11.3449 1.38532 11.29 1.52089 11.1766L2.66548 10.2366V17.9996C2.66647 18.3529 2.80726 18.6915 3.0571 18.9413C3.30694 19.1911 3.6455 19.3319 3.99882 19.3329H9.33219C9.68551 19.3319 10.0241 19.1911 10.2739 18.9413C10.5237 18.6915 10.6645 18.3529 10.6655 17.9996V13.6662H13.3322V17.9996C13.3332 18.3529 13.474 18.6915 13.7238 18.9413C13.9737 19.1911 14.3122 19.3319 14.6656 19.3329H19.9989C20.3506 19.3322 20.6878 19.1928 20.9374 18.9451C21.187 18.6974 21.3289 18.3612 21.3323 18.0096V10.2358L22.4794 11.1783C22.6149 11.2917 22.79 11.3466 22.966 11.3309C23.142 11.3153 23.3046 11.2304 23.4181 11.0949L23.8444 10.5829C23.9008 10.5155 23.9433 10.4377 23.9695 10.3539C23.9958 10.2701 24.0052 10.1819 23.9973 10.0945C23.9893 10.007 23.9642 9.92198 23.9233 9.84426C23.8824 9.76655 23.8265 9.69767 23.7589 9.64161ZM19.326 17.3329H15.3322V12.9995C15.3312 12.6462 15.1904 12.3077 14.9406 12.0578C14.6908 11.808 14.3522 11.6672 13.9989 11.6662H9.99886C9.64554 11.6672 9.30697 11.808 9.05714 12.0578C8.8073 12.3077 8.66651 12.6462 8.66552 12.9995V17.3329H4.66549V8.5941L11.9989 2.56823L19.3323 8.5916L19.326 17.3329Z" fill="#231F20"/>
</svg>
