<svg width="164" height="58" viewBox="0 0 164 58" fill="none" xmlns="http://www.w3.org/2000/svg">
<path d="M9.59006 49.7305H27.5259V56.7501H0.889282V3.72158H9.59006V49.7305Z" fill="#2D5BD0"/>
<path d="M31.9019 35.5387C31.9019 31.3168 32.7669 27.5781 34.4969 24.3226C36.2777 21.0671 38.6692 18.5492 41.6712 16.7689C44.7241 14.9377 48.0823 14.0221 51.7458 14.0221C55.0531 14.0221 57.9279 14.6834 60.3702 16.0059C62.8634 17.2775 64.8478 18.8799 66.3234 20.8128V14.7088H75.1005V56.7501H66.3234V50.4935C64.8478 52.4773 62.838 54.1304 60.2939 55.453C57.7498 56.7755 54.8495 57.4368 51.5931 57.4368C47.9805 57.4368 44.6732 56.5212 41.6712 54.69C38.6692 52.8079 36.2777 50.2137 34.4969 46.9074C32.7669 43.5502 31.9019 39.7606 31.9019 35.5387ZM66.3234 35.6913C66.3234 32.7919 65.7128 30.274 64.4916 28.1376C63.3214 26.0012 61.7695 24.3735 59.836 23.2544C57.9024 22.1353 55.8163 21.5758 53.5775 21.5758C51.3387 21.5758 49.2526 22.1353 47.319 23.2544C45.3855 24.3226 43.8082 25.9249 42.587 28.0613C41.4168 30.1468 40.8316 32.6393 40.8316 35.5387C40.8316 38.4381 41.4168 40.9814 42.587 43.1687C43.8082 45.356 45.3855 47.0345 47.319 48.2045C49.3034 49.3236 51.3896 49.8831 53.5775 49.8831C55.8163 49.8831 57.9024 49.3236 59.836 48.2045C61.7695 47.0854 63.3214 45.4577 64.4916 43.3213C65.7128 41.134 66.3234 38.5907 66.3234 35.6913Z" fill="#2D5BD0"/>
<path d="M101.793 57.4368C98.4858 57.4368 95.5092 56.8518 92.8634 55.6819C90.2684 54.4611 88.2077 52.8333 86.6812 50.7987C85.1548 48.7132 84.3407 46.3987 84.2389 43.8554H93.245C93.3976 45.6357 94.2372 47.1363 95.7636 48.3571C97.341 49.527 99.2999 50.112 101.64 50.112C104.083 50.112 105.965 49.6542 107.288 48.7386C108.662 47.7721 109.349 46.5513 109.349 45.0762C109.349 43.4993 108.586 42.3294 107.059 41.5664C105.584 40.8034 103.218 39.9641 99.9614 39.0485C96.8067 38.1838 94.2372 37.3445 92.2528 36.5306C90.2684 35.7167 88.5384 34.4705 87.0628 32.7919C85.6382 31.1133 84.9258 28.9006 84.9258 26.1538C84.9258 23.9157 85.5873 21.881 86.9102 20.0498C88.2331 18.1677 90.1158 16.6926 92.5581 15.6244C95.0513 14.5562 97.9007 14.0221 101.106 14.0221C105.889 14.0221 109.731 15.2429 112.631 17.6845C115.582 20.0752 117.159 23.3561 117.363 27.5272H108.662C108.509 25.6451 107.746 24.1446 106.372 23.0255C104.999 21.9064 103.141 21.3469 100.801 21.3469C98.5112 21.3469 96.7558 21.7793 95.5347 22.644C94.3135 23.5087 93.7029 24.6532 93.7029 26.0775C93.7029 27.1966 94.11 28.1376 94.9241 28.9006C95.7382 29.6636 96.7304 30.274 97.9007 30.7318C99.0709 31.1387 100.801 31.6728 103.091 32.3341C106.144 33.1479 108.637 33.9873 110.57 34.852C112.555 35.6659 114.259 36.8867 115.684 38.5144C117.109 40.1421 117.846 42.304 117.897 44.9999C117.897 47.3906 117.236 49.527 115.913 51.4091C114.59 53.2912 112.707 54.7663 110.265 55.8345C107.873 56.9027 105.05 57.4368 101.793 57.4368Z" fill="#2D5BD0"/>
<path d="M143.937 35.7676L163.323 56.7501H151.569L135.999 38.667V56.7501H127.299V0.288086H135.999V33.0971L151.264 14.7088H163.323L143.937 35.7676Z" fill="#2D5BD0"/>
</svg>
