<svg width="22" height="24" viewBox="0 0 22 24" fill="none" xmlns="http://www.w3.org/2000/svg">
<path d="M15.2 14.25C13.8547 14.25 13.2078 15 11 15C8.79219 15 8.15 14.25 6.8 14.25C3.32187 14.25 0.5 17.0719 0.5 20.55V21.75C0.5 22.9922 1.50781 24 2.75 24H19.25C20.4922 24 21.5 22.9922 21.5 21.75V20.55C21.5 17.0719 18.6781 14.25 15.2 14.25ZM19.25 21.75H2.75V20.55C2.75 18.3188 4.56875 16.5 6.8 16.5C7.48437 16.5 8.59531 17.25 11 17.25C13.4234 17.25 14.5109 16.5 15.2 16.5C17.4312 16.5 19.25 18.3188 19.25 20.55V21.75ZM11 13.5C14.7266 13.5 17.75 10.4766 17.75 6.75C17.75 3.02344 14.7266 0 11 0C7.27344 0 4.25 3.02344 4.25 6.75C4.25 10.4766 7.27344 13.5 11 13.5ZM11 2.25C13.4797 2.25 15.5 4.27031 15.5 6.75C15.5 9.22969 13.4797 11.25 11 11.25C8.52031 11.25 6.5 9.22969 6.5 6.75C6.5 4.27031 8.52031 2.25 11 2.25Z" fill="#231F20"/>
</svg>
