<svg width="16" height="16" viewBox="0 0 16 16" fill="none" xmlns="http://www.w3.org/2000/svg">
<path d="M15.6094 6.16836L10.7205 1.28078C9.88305 0.443276 8.44444 1.03689 8.44444 2.22355V4.4653C4.61222 4.58058 0 5.32447 0 10.057C0 12.1056 1.05611 13.7992 2.71194 14.8889C3.74305 15.5675 5.09639 14.5861 4.71722 13.3761C4.04083 11.2183 4.3725 10.0611 8.44444 9.82391V11.9984C8.44444 13.1828 9.88138 13.7803 10.7205 12.9411L15.6094 8.05391C16.1302 7.53335 16.1302 6.68891 15.6094 6.16836ZM9.77777 12V8.44697C5.20775 8.49669 2.07111 9.38644 3.445 13.7695C2.44444 13.1111 1.33333 11.917 1.33333 10.057C1.33333 6.1058 5.80052 5.79613 9.77777 5.77863V2.22225L14.6667 7.11113L9.77777 12Z" fill="#231F20"/>
</svg>
